<mxfile host="app.diagrams.net" agent="Mozilla/5.0 (Macintosh; Intel Mac OS X 10_15_7) AppleWebKit/605.1.15 (KHTML, like Gecko) Version/18.0 Safari/605.1.15" version="27.0.4">
  <diagram name="Page-1" id="iaeJkMmUDWYEsQgRDd_k">
    <mxGraphModel dx="1722" dy="1697" grid="1" gridSize="10" guides="1" tooltips="1" connect="1" arrows="1" fold="1" page="1" pageScale="1" pageWidth="827" pageHeight="1169" math="0" shadow="0">
      <root>
        <mxCell id="0" />
        <mxCell id="1" parent="0" />
        <mxCell id="kuIqpSutb5f7zw_z0I1X-2" value="" style="endArrow=none;html=1;rounded=0;strokeWidth=5;" edge="1" parent="1">
          <mxGeometry width="50" height="50" relative="1" as="geometry">
            <mxPoint x="40" y="80" as="sourcePoint" />
            <mxPoint x="420" y="80" as="targetPoint" />
          </mxGeometry>
        </mxCell>
        <mxCell id="kuIqpSutb5f7zw_z0I1X-3" value="" style="endArrow=none;html=1;rounded=0;strokeWidth=5;" edge="1" parent="1">
          <mxGeometry width="50" height="50" relative="1" as="geometry">
            <mxPoint x="420" y="220" as="sourcePoint" />
            <mxPoint x="420" y="80" as="targetPoint" />
          </mxGeometry>
        </mxCell>
        <mxCell id="kuIqpSutb5f7zw_z0I1X-4" value="" style="endArrow=none;html=1;rounded=0;strokeWidth=5;" edge="1" parent="1">
          <mxGeometry width="50" height="50" relative="1" as="geometry">
            <mxPoint x="540" y="80" as="sourcePoint" />
            <mxPoint x="420" y="80" as="targetPoint" />
          </mxGeometry>
        </mxCell>
        <mxCell id="kuIqpSutb5f7zw_z0I1X-5" value="" style="endArrow=none;html=1;rounded=0;strokeWidth=5;" edge="1" parent="1">
          <mxGeometry width="50" height="50" relative="1" as="geometry">
            <mxPoint x="540" y="220" as="sourcePoint" />
            <mxPoint x="540" y="80" as="targetPoint" />
          </mxGeometry>
        </mxCell>
        <mxCell id="kuIqpSutb5f7zw_z0I1X-6" value="" style="endArrow=none;html=1;rounded=0;strokeWidth=5;" edge="1" parent="1">
          <mxGeometry width="50" height="50" relative="1" as="geometry">
            <mxPoint x="660" y="80" as="sourcePoint" />
            <mxPoint x="540" y="80" as="targetPoint" />
          </mxGeometry>
        </mxCell>
        <mxCell id="kuIqpSutb5f7zw_z0I1X-7" value="" style="endArrow=none;html=1;rounded=0;strokeWidth=5;" edge="1" parent="1">
          <mxGeometry width="50" height="50" relative="1" as="geometry">
            <mxPoint x="660" y="220" as="sourcePoint" />
            <mxPoint x="660" y="80" as="targetPoint" />
          </mxGeometry>
        </mxCell>
        <mxCell id="kuIqpSutb5f7zw_z0I1X-8" value="" style="endArrow=none;html=1;rounded=0;strokeWidth=5;" edge="1" parent="1">
          <mxGeometry width="50" height="50" relative="1" as="geometry">
            <mxPoint x="80" y="220" as="sourcePoint" />
            <mxPoint x="660" y="220" as="targetPoint" />
          </mxGeometry>
        </mxCell>
        <mxCell id="kuIqpSutb5f7zw_z0I1X-9" value="" style="endArrow=none;html=1;rounded=0;strokeWidth=5;" edge="1" parent="1">
          <mxGeometry width="50" height="50" relative="1" as="geometry">
            <mxPoint x="40" y="140" as="sourcePoint" />
            <mxPoint x="40" y="80" as="targetPoint" />
          </mxGeometry>
        </mxCell>
        <mxCell id="kuIqpSutb5f7zw_z0I1X-10" value="" style="endArrow=none;html=1;rounded=0;strokeWidth=5;" edge="1" parent="1">
          <mxGeometry width="50" height="50" relative="1" as="geometry">
            <mxPoint x="80" y="220" as="sourcePoint" />
            <mxPoint x="80" y="140" as="targetPoint" />
          </mxGeometry>
        </mxCell>
        <mxCell id="kuIqpSutb5f7zw_z0I1X-11" value="" style="endArrow=none;html=1;rounded=0;strokeWidth=5;" edge="1" parent="1">
          <mxGeometry width="50" height="50" relative="1" as="geometry">
            <mxPoint x="40" y="140" as="sourcePoint" />
            <mxPoint x="80" y="140" as="targetPoint" />
          </mxGeometry>
        </mxCell>
        <mxCell id="kuIqpSutb5f7zw_z0I1X-12" value="" style="endArrow=none;html=1;rounded=0;strokeWidth=5;" edge="1" parent="1">
          <mxGeometry width="50" height="50" relative="1" as="geometry">
            <mxPoint x="-80" y="80" as="sourcePoint" />
            <mxPoint x="40" y="80" as="targetPoint" />
          </mxGeometry>
        </mxCell>
        <mxCell id="kuIqpSutb5f7zw_z0I1X-13" value="" style="endArrow=none;html=1;rounded=0;strokeWidth=5;" edge="1" parent="1">
          <mxGeometry width="50" height="50" relative="1" as="geometry">
            <mxPoint x="-80" y="180" as="sourcePoint" />
            <mxPoint x="-80" y="80" as="targetPoint" />
          </mxGeometry>
        </mxCell>
        <mxCell id="kuIqpSutb5f7zw_z0I1X-14" value="" style="endArrow=none;html=1;rounded=0;strokeWidth=5;" edge="1" parent="1">
          <mxGeometry width="50" height="50" relative="1" as="geometry">
            <mxPoint x="80" y="180" as="sourcePoint" />
            <mxPoint x="-80" y="180" as="targetPoint" />
          </mxGeometry>
        </mxCell>
        <mxCell id="kuIqpSutb5f7zw_z0I1X-15" value="" style="endArrow=none;html=1;rounded=0;strokeWidth=5;" edge="1" parent="1">
          <mxGeometry width="50" height="50" relative="1" as="geometry">
            <mxPoint y="220" as="sourcePoint" />
            <mxPoint x="80" y="220" as="targetPoint" />
          </mxGeometry>
        </mxCell>
        <mxCell id="kuIqpSutb5f7zw_z0I1X-16" value="" style="endArrow=none;html=1;rounded=0;strokeWidth=5;" edge="1" parent="1">
          <mxGeometry width="50" height="50" relative="1" as="geometry">
            <mxPoint x="-210" y="80" as="sourcePoint" />
            <mxPoint x="-80" y="80" as="targetPoint" />
          </mxGeometry>
        </mxCell>
        <mxCell id="kuIqpSutb5f7zw_z0I1X-17" value="" style="endArrow=none;html=1;rounded=0;strokeWidth=5;" edge="1" parent="1">
          <mxGeometry width="50" height="50" relative="1" as="geometry">
            <mxPoint x="-210" y="220" as="sourcePoint" />
            <mxPoint x="-210" y="80" as="targetPoint" />
          </mxGeometry>
        </mxCell>
        <mxCell id="kuIqpSutb5f7zw_z0I1X-18" value="" style="endArrow=none;html=1;rounded=0;strokeWidth=5;" edge="1" parent="1">
          <mxGeometry width="50" height="50" relative="1" as="geometry">
            <mxPoint x="-80" y="220" as="sourcePoint" />
            <mxPoint x="-210" y="220" as="targetPoint" />
          </mxGeometry>
        </mxCell>
        <mxCell id="kuIqpSutb5f7zw_z0I1X-19" value="" style="endArrow=none;html=1;rounded=0;strokeWidth=5;" edge="1" parent="1">
          <mxGeometry width="50" height="50" relative="1" as="geometry">
            <mxPoint x="-80" y="220" as="sourcePoint" />
            <mxPoint x="-80" y="180" as="targetPoint" />
          </mxGeometry>
        </mxCell>
        <mxCell id="kuIqpSutb5f7zw_z0I1X-20" value="" style="endArrow=none;html=1;rounded=0;strokeWidth=5;" edge="1" parent="1">
          <mxGeometry width="50" height="50" relative="1" as="geometry">
            <mxPoint x="-1" y="320" as="sourcePoint" />
            <mxPoint x="-1" y="220" as="targetPoint" />
          </mxGeometry>
        </mxCell>
        <mxCell id="kuIqpSutb5f7zw_z0I1X-21" value="" style="endArrow=none;html=1;rounded=0;strokeWidth=5;" edge="1" parent="1">
          <mxGeometry width="50" height="50" relative="1" as="geometry">
            <mxPoint x="-80" y="320" as="sourcePoint" />
            <mxPoint x="-80" y="220" as="targetPoint" />
          </mxGeometry>
        </mxCell>
        <mxCell id="kuIqpSutb5f7zw_z0I1X-22" value="" style="endArrow=none;html=1;rounded=0;strokeWidth=5;" edge="1" parent="1">
          <mxGeometry width="50" height="50" relative="1" as="geometry">
            <mxPoint y="320" as="sourcePoint" />
            <mxPoint x="-80" y="320" as="targetPoint" />
          </mxGeometry>
        </mxCell>
        <mxCell id="kuIqpSutb5f7zw_z0I1X-23" value="" style="endArrow=none;html=1;rounded=0;strokeWidth=5;" edge="1" parent="1">
          <mxGeometry width="50" height="50" relative="1" as="geometry">
            <mxPoint x="-40" y="220" as="sourcePoint" />
            <mxPoint x="-80" y="220" as="targetPoint" />
          </mxGeometry>
        </mxCell>
        <mxCell id="kuIqpSutb5f7zw_z0I1X-24" value="" style="endArrow=none;html=1;rounded=0;strokeWidth=5;" edge="1" parent="1">
          <mxGeometry width="50" height="50" relative="1" as="geometry">
            <mxPoint x="-40" y="290" as="sourcePoint" />
            <mxPoint x="-40" y="220" as="targetPoint" />
          </mxGeometry>
        </mxCell>
        <mxCell id="kuIqpSutb5f7zw_z0I1X-25" value="" style="endArrow=none;html=1;rounded=0;" edge="1" parent="1">
          <mxGeometry width="50" height="50" relative="1" as="geometry">
            <mxPoint x="-40" y="240" as="sourcePoint" />
            <mxPoint y="240" as="targetPoint" />
          </mxGeometry>
        </mxCell>
        <mxCell id="kuIqpSutb5f7zw_z0I1X-26" value="" style="endArrow=none;html=1;rounded=0;" edge="1" parent="1">
          <mxGeometry width="50" height="50" relative="1" as="geometry">
            <mxPoint x="-40" y="250" as="sourcePoint" />
            <mxPoint y="250" as="targetPoint" />
          </mxGeometry>
        </mxCell>
        <mxCell id="kuIqpSutb5f7zw_z0I1X-27" value="" style="endArrow=none;html=1;rounded=0;" edge="1" parent="1">
          <mxGeometry width="50" height="50" relative="1" as="geometry">
            <mxPoint x="-40" y="260" as="sourcePoint" />
            <mxPoint y="260" as="targetPoint" />
          </mxGeometry>
        </mxCell>
        <mxCell id="kuIqpSutb5f7zw_z0I1X-28" value="" style="endArrow=none;html=1;rounded=0;" edge="1" parent="1">
          <mxGeometry width="50" height="50" relative="1" as="geometry">
            <mxPoint x="-40" y="270" as="sourcePoint" />
            <mxPoint y="270" as="targetPoint" />
          </mxGeometry>
        </mxCell>
        <mxCell id="kuIqpSutb5f7zw_z0I1X-29" value="" style="endArrow=none;html=1;rounded=0;" edge="1" parent="1">
          <mxGeometry width="50" height="50" relative="1" as="geometry">
            <mxPoint x="-40" y="280" as="sourcePoint" />
            <mxPoint y="280" as="targetPoint" />
          </mxGeometry>
        </mxCell>
        <mxCell id="kuIqpSutb5f7zw_z0I1X-30" value="" style="endArrow=none;html=1;rounded=0;" edge="1" parent="1">
          <mxGeometry width="50" height="50" relative="1" as="geometry">
            <mxPoint x="-40" y="290" as="sourcePoint" />
            <mxPoint y="290" as="targetPoint" />
          </mxGeometry>
        </mxCell>
        <mxCell id="kuIqpSutb5f7zw_z0I1X-31" value="" style="endArrow=none;html=1;rounded=0;" edge="1" parent="1">
          <mxGeometry width="50" height="50" relative="1" as="geometry">
            <mxPoint x="-40" y="230" as="sourcePoint" />
            <mxPoint y="230" as="targetPoint" />
          </mxGeometry>
        </mxCell>
        <mxCell id="kuIqpSutb5f7zw_z0I1X-32" value="" style="endArrow=none;html=1;rounded=0;" edge="1" parent="1">
          <mxGeometry width="50" height="50" relative="1" as="geometry">
            <mxPoint x="-80" y="290" as="sourcePoint" />
            <mxPoint x="-40" y="290" as="targetPoint" />
          </mxGeometry>
        </mxCell>
        <mxCell id="kuIqpSutb5f7zw_z0I1X-33" value="" style="endArrow=none;html=1;rounded=0;" edge="1" parent="1">
          <mxGeometry width="50" height="50" relative="1" as="geometry">
            <mxPoint x="-80" y="270" as="sourcePoint" />
            <mxPoint x="-40" y="270" as="targetPoint" />
          </mxGeometry>
        </mxCell>
        <mxCell id="kuIqpSutb5f7zw_z0I1X-34" value="" style="endArrow=none;html=1;rounded=0;" edge="1" parent="1">
          <mxGeometry width="50" height="50" relative="1" as="geometry">
            <mxPoint x="-80" y="280" as="sourcePoint" />
            <mxPoint x="-40" y="280" as="targetPoint" />
          </mxGeometry>
        </mxCell>
        <mxCell id="kuIqpSutb5f7zw_z0I1X-35" value="" style="endArrow=classic;html=1;rounded=0;" edge="1" parent="1">
          <mxGeometry width="50" height="50" relative="1" as="geometry">
            <mxPoint x="-60" y="260" as="sourcePoint" />
            <mxPoint x="-60" y="230" as="targetPoint" />
          </mxGeometry>
        </mxCell>
        <mxCell id="kuIqpSutb5f7zw_z0I1X-36" value="" style="verticalLabelPosition=bottom;html=1;verticalAlign=top;align=center;shape=mxgraph.floorplan.doorLeft;aspect=fixed;rotation=-90;" vertex="1" parent="1">
          <mxGeometry x="78" y="180" width="37.65" height="40" as="geometry" />
        </mxCell>
        <mxCell id="kuIqpSutb5f7zw_z0I1X-37" value="" style="verticalLabelPosition=bottom;html=1;verticalAlign=top;align=center;shape=mxgraph.floorplan.doorLeft;aspect=fixed;rotation=-90;" vertex="1" parent="1">
          <mxGeometry y="180" width="37.65" height="40" as="geometry" />
        </mxCell>
        <mxCell id="kuIqpSutb5f7zw_z0I1X-38" value="" style="verticalLabelPosition=bottom;html=1;verticalAlign=top;align=center;shape=mxgraph.floorplan.doorLeft;aspect=fixed;rotation=0;" vertex="1" parent="1">
          <mxGeometry x="-127" y="77" width="37.65" height="40" as="geometry" />
        </mxCell>
        <mxCell id="kuIqpSutb5f7zw_z0I1X-39" value="" style="verticalLabelPosition=bottom;html=1;verticalAlign=top;align=center;shape=mxgraph.floorplan.doorLeft;aspect=fixed;rotation=-180;" vertex="1" parent="1">
          <mxGeometry x="37.650000000000006" y="142" width="37.65" height="40" as="geometry" />
        </mxCell>
        <mxCell id="kuIqpSutb5f7zw_z0I1X-42" value="" style="verticalLabelPosition=bottom;html=1;verticalAlign=top;align=center;shape=mxgraph.floorplan.doorLeft;aspect=fixed;rotation=-90;flipH=1;" vertex="1" parent="1">
          <mxGeometry x="419" y="86" width="37.65" height="40" as="geometry" />
        </mxCell>
        <mxCell id="kuIqpSutb5f7zw_z0I1X-43" value="" style="verticalLabelPosition=bottom;html=1;verticalAlign=top;align=center;shape=mxgraph.floorplan.doorLeft;aspect=fixed;rotation=-90;flipH=1;" vertex="1" parent="1">
          <mxGeometry x="538" y="87" width="37.65" height="40" as="geometry" />
        </mxCell>
        <mxCell id="kuIqpSutb5f7zw_z0I1X-44" value="" style="verticalLabelPosition=bottom;html=1;verticalAlign=top;align=center;shape=mxgraph.floorplan.doorLeft;aspect=fixed;rotation=-90;flipH=1;flipV=1;" vertex="1" parent="1">
          <mxGeometry x="623" y="87" width="37.65" height="40" as="geometry" />
        </mxCell>
        <mxCell id="kuIqpSutb5f7zw_z0I1X-45" value="" style="verticalLabelPosition=bottom;html=1;verticalAlign=top;align=center;shape=mxgraph.floorplan.doorLeft;aspect=fixed;rotation=-90;flipH=0;flipV=1;" vertex="1" parent="1">
          <mxGeometry x="-117" y="180" width="37.65" height="40" as="geometry" />
        </mxCell>
        <mxCell id="kuIqpSutb5f7zw_z0I1X-46" value="" style="verticalLabelPosition=bottom;html=1;verticalAlign=top;align=center;shape=mxgraph.floorplan.doorDouble;aspect=fixed;flipV=1;" vertex="1" parent="1">
          <mxGeometry x="80" y="39.5" width="80" height="42.5" as="geometry" />
        </mxCell>
        <mxCell id="kuIqpSutb5f7zw_z0I1X-47" value="" style="ellipse;whiteSpace=wrap;html=1;aspect=fixed;" vertex="1" parent="1">
          <mxGeometry x="-93.35" y="39.5" width="20" height="20" as="geometry" />
        </mxCell>
        <mxCell id="kuIqpSutb5f7zw_z0I1X-48" value="" style="ellipse;whiteSpace=wrap;html=1;aspect=fixed;" vertex="1" parent="1">
          <mxGeometry x="-93.35" y="-40" width="20" height="20" as="geometry" />
        </mxCell>
        <mxCell id="kuIqpSutb5f7zw_z0I1X-49" value="" style="ellipse;whiteSpace=wrap;html=1;aspect=fixed;" vertex="1" parent="1">
          <mxGeometry x="-170" y="39.5" width="20" height="20" as="geometry" />
        </mxCell>
        <mxCell id="kuIqpSutb5f7zw_z0I1X-50" value="" style="ellipse;whiteSpace=wrap;html=1;aspect=fixed;" vertex="1" parent="1">
          <mxGeometry x="-250" y="39.5" width="20" height="20" as="geometry" />
        </mxCell>
        <mxCell id="kuIqpSutb5f7zw_z0I1X-51" value="" style="ellipse;whiteSpace=wrap;html=1;aspect=fixed;" vertex="1" parent="1">
          <mxGeometry x="-330" y="39.5" width="20" height="20" as="geometry" />
        </mxCell>
        <mxCell id="kuIqpSutb5f7zw_z0I1X-52" value="" style="ellipse;whiteSpace=wrap;html=1;aspect=fixed;" vertex="1" parent="1">
          <mxGeometry x="-330" y="-40" width="20" height="20" as="geometry" />
        </mxCell>
        <mxCell id="kuIqpSutb5f7zw_z0I1X-53" value="" style="ellipse;whiteSpace=wrap;html=1;aspect=fixed;" vertex="1" parent="1">
          <mxGeometry x="-250" y="-40" width="20" height="20" as="geometry" />
        </mxCell>
        <mxCell id="kuIqpSutb5f7zw_z0I1X-54" value="" style="ellipse;whiteSpace=wrap;html=1;aspect=fixed;" vertex="1" parent="1">
          <mxGeometry x="-170" y="-40" width="20" height="20" as="geometry" />
        </mxCell>
        <mxCell id="kuIqpSutb5f7zw_z0I1X-55" value="" style="ellipse;whiteSpace=wrap;html=1;aspect=fixed;" vertex="1" parent="1">
          <mxGeometry x="-250" y="120" width="20" height="20" as="geometry" />
        </mxCell>
        <mxCell id="kuIqpSutb5f7zw_z0I1X-56" value="" style="ellipse;whiteSpace=wrap;html=1;aspect=fixed;" vertex="1" parent="1">
          <mxGeometry x="-330" y="120" width="20" height="20" as="geometry" />
        </mxCell>
        <mxCell id="kuIqpSutb5f7zw_z0I1X-57" value="" style="endArrow=none;html=1;rounded=0;" edge="1" parent="1">
          <mxGeometry width="50" height="50" relative="1" as="geometry">
            <mxPoint x="-80" as="sourcePoint" />
            <mxPoint x="240" as="targetPoint" />
          </mxGeometry>
        </mxCell>
        <mxCell id="kuIqpSutb5f7zw_z0I1X-58" value="" style="endArrow=none;html=1;rounded=0;exitX=1;exitY=1;exitDx=0;exitDy=0;entryX=1;entryY=1;entryDx=0;entryDy=0;flowAnimation=0;strokeWidth=3;fillColor=#f5f5f5;strokeColor=#666666;" edge="1" parent="1" source="kuIqpSutb5f7zw_z0I1X-51" target="kuIqpSutb5f7zw_z0I1X-53">
          <mxGeometry width="50" height="50" relative="1" as="geometry">
            <mxPoint x="-90" y="10" as="sourcePoint" />
            <mxPoint x="-40" y="-40" as="targetPoint" />
          </mxGeometry>
        </mxCell>
        <mxCell id="kuIqpSutb5f7zw_z0I1X-59" value="" style="endArrow=none;html=1;rounded=0;exitX=1;exitY=0.5;exitDx=0;exitDy=0;entryX=1;entryY=0.5;entryDx=0;entryDy=0;flowAnimation=0;strokeWidth=3;fillColor=#f5f5f5;strokeColor=#666666;" edge="1" parent="1" source="kuIqpSutb5f7zw_z0I1X-56" target="kuIqpSutb5f7zw_z0I1X-51">
          <mxGeometry width="50" height="50" relative="1" as="geometry">
            <mxPoint x="-303" y="67" as="sourcePoint" />
            <mxPoint x="-223" y="-13" as="targetPoint" />
          </mxGeometry>
        </mxCell>
        <mxCell id="kuIqpSutb5f7zw_z0I1X-60" value="" style="endArrow=none;html=1;rounded=0;exitX=0.5;exitY=1;exitDx=0;exitDy=0;entryX=0.5;entryY=1;entryDx=0;entryDy=0;" edge="1" parent="1" source="kuIqpSutb5f7zw_z0I1X-53" target="kuIqpSutb5f7zw_z0I1X-48">
          <mxGeometry width="50" height="50" relative="1" as="geometry">
            <mxPoint x="-30" y="60" as="sourcePoint" />
            <mxPoint x="20" y="10" as="targetPoint" />
          </mxGeometry>
        </mxCell>
        <mxCell id="kuIqpSutb5f7zw_z0I1X-61" value="" style="endArrow=none;html=1;rounded=0;entryX=0.657;entryY=0.99;entryDx=0;entryDy=0;entryPerimeter=0;" edge="1" parent="1" target="kuIqpSutb5f7zw_z0I1X-48">
          <mxGeometry width="50" height="50" relative="1" as="geometry">
            <mxPoint x="-80" y="20" as="sourcePoint" />
            <mxPoint x="-80" y="-10" as="targetPoint" />
          </mxGeometry>
        </mxCell>
        <mxCell id="kuIqpSutb5f7zw_z0I1X-62" value="" style="endArrow=none;html=1;rounded=0;" edge="1" parent="1">
          <mxGeometry width="50" height="50" relative="1" as="geometry">
            <mxPoint x="-80" y="20" as="sourcePoint" />
            <mxPoint x="220" y="20" as="targetPoint" />
          </mxGeometry>
        </mxCell>
        <mxCell id="kuIqpSutb5f7zw_z0I1X-64" value="" style="endArrow=none;html=1;rounded=0;" edge="1" parent="1">
          <mxGeometry width="50" height="50" relative="1" as="geometry">
            <mxPoint x="220" y="20" as="sourcePoint" />
            <mxPoint x="270" y="-30" as="targetPoint" />
          </mxGeometry>
        </mxCell>
        <mxCell id="kuIqpSutb5f7zw_z0I1X-65" value="" style="endArrow=none;html=1;rounded=0;" edge="1" parent="1">
          <mxGeometry width="50" height="50" relative="1" as="geometry">
            <mxPoint x="270" y="-30" as="sourcePoint" />
            <mxPoint x="520" y="-30" as="targetPoint" />
          </mxGeometry>
        </mxCell>
        <mxCell id="kuIqpSutb5f7zw_z0I1X-66" value="" style="endArrow=none;html=1;rounded=0;" edge="1" parent="1">
          <mxGeometry width="50" height="50" relative="1" as="geometry">
            <mxPoint x="520" y="-30" as="sourcePoint" />
            <mxPoint x="560" y="10" as="targetPoint" />
          </mxGeometry>
        </mxCell>
        <mxCell id="kuIqpSutb5f7zw_z0I1X-67" value="" style="endArrow=none;html=1;rounded=0;" edge="1" parent="1">
          <mxGeometry width="50" height="50" relative="1" as="geometry">
            <mxPoint x="730" y="10" as="sourcePoint" />
            <mxPoint x="730" y="70" as="targetPoint" />
          </mxGeometry>
        </mxCell>
        <mxCell id="kuIqpSutb5f7zw_z0I1X-68" value="" style="endArrow=none;html=1;rounded=0;" edge="1" parent="1">
          <mxGeometry width="50" height="50" relative="1" as="geometry">
            <mxPoint x="730" y="70" as="sourcePoint" />
            <mxPoint x="860" y="70" as="targetPoint" />
          </mxGeometry>
        </mxCell>
        <mxCell id="kuIqpSutb5f7zw_z0I1X-69" value="" style="endArrow=none;html=1;rounded=0;" edge="1" parent="1">
          <mxGeometry width="50" height="50" relative="1" as="geometry">
            <mxPoint x="560" y="10" as="sourcePoint" />
            <mxPoint x="730" y="10" as="targetPoint" />
          </mxGeometry>
        </mxCell>
        <mxCell id="kuIqpSutb5f7zw_z0I1X-70" value="" style="endArrow=none;html=1;rounded=0;" edge="1" parent="1">
          <mxGeometry width="50" height="50" relative="1" as="geometry">
            <mxPoint x="860" y="240" as="sourcePoint" />
            <mxPoint x="860" y="70" as="targetPoint" />
          </mxGeometry>
        </mxCell>
        <mxCell id="kuIqpSutb5f7zw_z0I1X-71" value="" style="ellipse;whiteSpace=wrap;html=1;aspect=fixed;" vertex="1" parent="1">
          <mxGeometry x="-250" y="200" width="20" height="20" as="geometry" />
        </mxCell>
        <mxCell id="kuIqpSutb5f7zw_z0I1X-72" value="" style="ellipse;whiteSpace=wrap;html=1;aspect=fixed;" vertex="1" parent="1">
          <mxGeometry x="-330" y="200" width="20" height="20" as="geometry" />
        </mxCell>
      </root>
    </mxGraphModel>
  </diagram>
</mxfile>
